<svg xmlns="http://www.w3.org/2000/svg" width="600" height="600" viewBox="0 0 600 600">
  <defs>
    <linearGradient id="base3" x1="0%" y1="0%" x2="100%" y2="100%">
      <stop offset="0%" stop-color="#3d2f8c"/>
      <stop offset="45%" stop-color="#5b3fae"/>
      <stop offset="100%" stop-color="#8452c9"/>
    </linearGradient>
    <radialGradient id="glow" cx="50%" cy="30%" r="70%">
      <stop offset="0%" stop-color="#ffffff" stop-opacity="0.08"/>
      <stop offset="100%" stop-color="#ffffff" stop-opacity="0"/>
    </radialGradient>
  </defs>
  <rect width="600" height="600" fill="url(#base3)"/>
  <rect width="600" height="600" fill="url(#glow)"/>

  <g fill="#ffffff">
    <g opacity="0.09">
      <rect x="60" y="50" width="150" height="88" rx="24"/>
      <path d="M100 138l14 22 14-22z"/>
    </g>
    <g opacity="0.06">
      <circle cx="470" cy="90" r="52"/>
    </g>
    <g opacity="0.08">
      <rect x="360" y="150" width="130" height="78" rx="22"/>
      <path d="M396 228l13 20 13-20z"/>
    </g>
    <g opacity="0.055">
      <circle cx="90" cy="280" r="34"/>
    </g>
    <g opacity="0.09">
      <rect x="200" y="260" width="150" height="90" rx="26"/>
      <path d="M242 350l14 22 14-22z"/>
    </g>
    <g opacity="0.07">
      <rect x="30" y="400" width="120" height="74" rx="22"/>
      <path d="M62 474l12 18 12-18z"/>
    </g>
    <g opacity="0.06">
      <circle cx="500" cy="420" r="60"/>
    </g>
    <g opacity="0.09">
      <rect x="260" y="450" width="150" height="88" rx="24"/>
      <path d="M300 538l14 22 14-22z"/>
    </g>
    <g opacity="0.05">
      <circle cx="200" cy="540" r="30"/>
    </g>
  </g>

  <g stroke="#ffffff" stroke-width="1.5" fill="none" opacity="0.08">
    <circle cx="520" cy="250" r="22"/>
    <circle cx="150" cy="180" r="16"/>
    <circle cx="420" cy="540" r="18"/>
  </g>
</svg>
